<?xml version="1.0" encoding="UTF-8" standalone="no"?>
<!DOCTYPE svg PUBLIC "-//W3C//DTD SVG 1.1//EN"
 "http://www.w3.org/Graphics/SVG/1.1/DTD/svg11.dtd">
<!-- Generated by graphviz version 2.34.0 (20130907.0231)
 -->
<!-- Title: %3 Pages: 1 -->
<svg width="206pt" height="404pt"
 viewBox="0.00 0.00 206.00 404.00" xmlns="http://www.w3.org/2000/svg" xmlns:xlink="http://www.w3.org/1999/xlink">
<g id="graph0" class="graph" transform="scale(1 1) rotate(0) translate(4 400)">
<title>%3</title>
<polygon fill="white" stroke="white" points="-4,4 -4,-400 202,-400 202,4 -4,4"/>
<!-- 099 -->
<g id="node1" class="node"><title>099</title>
<ellipse fill="none" stroke="black" cx="27" cy="-378" rx="27" ry="18"/>
<text text-anchor="middle" x="27" y="-372.4" font-family="Times,serif" font-size="14.00">099</text>
</g>
<!-- 891 -->
<g id="node2" class="node"><title>891</title>
<ellipse fill="none" stroke="black" cx="27" cy="-306" rx="27" ry="18"/>
<text text-anchor="middle" x="27" y="-300.4" font-family="Times,serif" font-size="14.00">891</text>
</g>
<!-- 099&#45;&gt;891 -->
<g id="edge1" class="edge"><title>099&#45;&gt;891</title>
<path fill="none" stroke="black" d="M27,-359.697C27,-351.983 27,-342.712 27,-334.112"/>
<polygon fill="black" stroke="black" points="30.5001,-334.104 27,-324.104 23.5001,-334.104 30.5001,-334.104"/>
</g>
<!-- 792 -->
<g id="node4" class="node"><title>792</title>
<ellipse fill="none" stroke="black" cx="63" cy="-234" rx="27" ry="18"/>
<text text-anchor="middle" x="63" y="-228.4" font-family="Times,serif" font-size="14.00">792</text>
</g>
<!-- 891&#45;&gt;792 -->
<g id="edge5" class="edge"><title>891&#45;&gt;792</title>
<path fill="none" stroke="black" d="M35.3496,-288.765C39.7115,-280.283 45.1469,-269.714 50.0413,-260.197"/>
<polygon fill="black" stroke="black" points="53.2346,-261.641 54.6957,-251.147 47.0096,-258.439 53.2346,-261.641"/>
</g>
<!-- 198 -->
<g id="node3" class="node"><title>198</title>
<ellipse fill="none" stroke="black" cx="99" cy="-306" rx="27" ry="18"/>
<text text-anchor="middle" x="99" y="-300.4" font-family="Times,serif" font-size="14.00">198</text>
</g>
<!-- 198&#45;&gt;792 -->
<g id="edge2" class="edge"><title>198&#45;&gt;792</title>
<path fill="none" stroke="black" d="M90.6504,-288.765C86.2885,-280.283 80.8531,-269.714 75.9587,-260.197"/>
<polygon fill="black" stroke="black" points="78.9904,-258.439 71.3043,-251.147 72.7654,-261.641 78.9904,-258.439"/>
</g>
<!-- 693 -->
<g id="node5" class="node"><title>693</title>
<ellipse fill="none" stroke="black" cx="99" cy="-162" rx="27" ry="18"/>
<text text-anchor="middle" x="99" y="-156.4" font-family="Times,serif" font-size="14.00">693</text>
</g>
<!-- 792&#45;&gt;693 -->
<g id="edge4" class="edge"><title>792&#45;&gt;693</title>
<path fill="none" stroke="black" d="M71.3496,-216.765C75.7115,-208.283 81.1469,-197.714 86.0413,-188.197"/>
<polygon fill="black" stroke="black" points="89.2346,-189.641 90.6957,-179.147 83.0096,-186.439 89.2346,-189.641"/>
</g>
<!-- 594 -->
<g id="node6" class="node"><title>594</title>
<ellipse fill="none" stroke="black" cx="135" cy="-90" rx="27" ry="18"/>
<text text-anchor="middle" x="135" y="-84.4" font-family="Times,serif" font-size="14.00">594</text>
</g>
<!-- 693&#45;&gt;594 -->
<g id="edge3" class="edge"><title>693&#45;&gt;594</title>
<path fill="none" stroke="black" d="M107.35,-144.765C111.712,-136.283 117.147,-125.714 122.041,-116.197"/>
<polygon fill="black" stroke="black" points="125.235,-117.641 126.696,-107.147 119.01,-114.439 125.235,-117.641"/>
</g>
<!-- 495 -->
<g id="node10" class="node"><title>495</title>
<ellipse fill="none" stroke="black" cx="135" cy="-18" rx="27" ry="18"/>
<text text-anchor="middle" x="135" y="-12.4" font-family="Times,serif" font-size="14.00">495</text>
</g>
<!-- 594&#45;&gt;495 -->
<g id="edge10" class="edge"><title>594&#45;&gt;495</title>
<path fill="none" stroke="black" d="M135,-71.6966C135,-63.9827 135,-54.7125 135,-46.1124"/>
<polygon fill="black" stroke="black" points="138.5,-46.1043 135,-36.1043 131.5,-46.1044 138.5,-46.1043"/>
</g>
<!-- 000 -->
<g id="node7" class="node"><title>000</title>
<ellipse fill="none" stroke="black" cx="99" cy="-378" rx="27" ry="18"/>
<text text-anchor="middle" x="99" y="-372.4" font-family="Times,serif" font-size="14.00">000</text>
</g>
<!-- 000&#45;&gt;000 -->
<g id="edge6" class="edge"><title>000&#45;&gt;000</title>
<path fill="none" stroke="black" d="M118.895,-390.432C131.688,-393.675 144,-389.531 144,-378 144,-369.622 137.501,-365.143 129.039,-364.564"/>
<polygon fill="black" stroke="black" points="128.502,-361.1 118.895,-365.568 129.191,-368.066 128.502,-361.1"/>
</g>
<!-- 396 -->
<g id="node8" class="node"><title>396</title>
<ellipse fill="none" stroke="black" cx="171" cy="-162" rx="27" ry="18"/>
<text text-anchor="middle" x="171" y="-156.4" font-family="Times,serif" font-size="14.00">396</text>
</g>
<!-- 396&#45;&gt;594 -->
<g id="edge7" class="edge"><title>396&#45;&gt;594</title>
<path fill="none" stroke="black" d="M162.65,-144.765C158.288,-136.283 152.853,-125.714 147.959,-116.197"/>
<polygon fill="black" stroke="black" points="150.99,-114.439 143.304,-107.147 144.765,-117.641 150.99,-114.439"/>
</g>
<!-- 297 -->
<g id="node9" class="node"><title>297</title>
<ellipse fill="none" stroke="black" cx="135" cy="-234" rx="27" ry="18"/>
<text text-anchor="middle" x="135" y="-228.4" font-family="Times,serif" font-size="14.00">297</text>
</g>
<!-- 297&#45;&gt;693 -->
<g id="edge8" class="edge"><title>297&#45;&gt;693</title>
<path fill="none" stroke="black" d="M126.65,-216.765C122.288,-208.283 116.853,-197.714 111.959,-188.197"/>
<polygon fill="black" stroke="black" points="114.99,-186.439 107.304,-179.147 108.765,-189.641 114.99,-186.439"/>
</g>
<!-- 495&#45;&gt;495 -->
<g id="edge9" class="edge"><title>495&#45;&gt;495</title>
<path fill="none" stroke="black" d="M154.895,-30.4321C167.688,-33.6753 180,-29.5312 180,-18 180,-9.62183 173.501,-5.14331 165.039,-4.56444"/>
<polygon fill="black" stroke="black" points="164.502,-1.10045 154.895,-5.56787 165.191,-8.06645 164.502,-1.10045"/>
</g>
</g>
</svg>
