<?xml version="1.0" encoding="UTF-8" standalone="no"?>
<!DOCTYPE svg PUBLIC "-//W3C//DTD SVG 1.1//EN"
 "http://www.w3.org/Graphics/SVG/1.1/DTD/svg11.dtd">
<!-- Generated by graphviz version 2.34.0 (20130907.0231)
 -->
<!-- Title: %3 Pages: 1 -->
<svg width="1135pt" height="476pt"
 viewBox="0.00 0.00 1135.00 476.00" xmlns="http://www.w3.org/2000/svg" xmlns:xlink="http://www.w3.org/1999/xlink">
<g id="graph0" class="graph" transform="scale(1 1) rotate(0) translate(4 472)">
<title>%3</title>
<polygon fill="white" stroke="white" points="-4,4 -4,-472 1131,-472 1131,4 -4,4"/>
<!-- 9351 -->
<g id="node1" class="node"><title>9351</title>
<ellipse fill="none" stroke="black" cx="707" cy="-450" rx="30.0272" ry="18"/>
<text text-anchor="middle" x="707" y="-444.4" font-family="Times,serif" font-size="14.00">9351</text>
</g>
<!-- 8172 -->
<g id="node2" class="node"><title>8172</title>
<ellipse fill="none" stroke="black" cx="860" cy="-378" rx="30.0272" ry="18"/>
<text text-anchor="middle" x="860" y="-372.4" font-family="Times,serif" font-size="14.00">8172</text>
</g>
<!-- 9351&#45;&gt;8172 -->
<g id="edge1" class="edge"><title>9351&#45;&gt;8172</title>
<path fill="none" stroke="black" d="M730.237,-438.369C756.074,-426.548 798.001,-407.365 827.179,-394.016"/>
<polygon fill="black" stroke="black" points="828.907,-397.075 836.544,-389.732 825.994,-390.709 828.907,-397.075"/>
</g>
<!-- 7443 -->
<g id="node8" class="node"><title>7443</title>
<ellipse fill="none" stroke="black" cx="820" cy="-306" rx="30.0272" ry="18"/>
<text text-anchor="middle" x="820" y="-300.4" font-family="Times,serif" font-size="14.00">7443</text>
</g>
<!-- 8172&#45;&gt;7443 -->
<g id="edge5" class="edge"><title>8172&#45;&gt;7443</title>
<path fill="none" stroke="black" d="M850.723,-360.765C845.826,-352.195 839.711,-341.494 834.229,-331.9"/>
<polygon fill="black" stroke="black" points="837.227,-330.093 829.227,-323.147 831.15,-333.566 837.227,-330.093"/>
</g>
<!-- 9261 -->
<g id="node3" class="node"><title>9261</title>
<ellipse fill="none" stroke="black" cx="109" cy="-162" rx="30.0272" ry="18"/>
<text text-anchor="middle" x="109" y="-156.4" font-family="Times,serif" font-size="14.00">9261</text>
</g>
<!-- 8352 -->
<g id="node4" class="node"><title>8352</title>
<ellipse fill="none" stroke="black" cx="307" cy="-90" rx="30.0272" ry="18"/>
<text text-anchor="middle" x="307" y="-84.4" font-family="Times,serif" font-size="14.00">8352</text>
</g>
<!-- 9261&#45;&gt;8352 -->
<g id="edge2" class="edge"><title>9261&#45;&gt;8352</title>
<path fill="none" stroke="black" d="M132.565,-150.623C137.935,-148.36 143.639,-146.035 149,-144 190.372,-128.297 238.706,-112.439 270.916,-102.217"/>
<polygon fill="black" stroke="black" points="272.295,-105.452 280.778,-99.1034 270.188,-98.7766 272.295,-105.452"/>
</g>
<!-- 6174 -->
<g id="node21" class="node"><title>6174</title>
<ellipse fill="none" stroke="black" cx="622" cy="-18" rx="30.0272" ry="18"/>
<text text-anchor="middle" x="622" y="-12.4" font-family="Times,serif" font-size="14.00">6174</text>
</g>
<!-- 8352&#45;&gt;6174 -->
<g id="edge13" class="edge"><title>8352&#45;&gt;6174</title>
<path fill="none" stroke="black" d="M334.954,-82.788C391.579,-70.2048 519.88,-41.6932 584.017,-27.4407"/>
<polygon fill="black" stroke="black" points="585.106,-30.7841 594.108,-25.1981 583.587,-23.9508 585.106,-30.7841"/>
</g>
<!-- 7173 -->
<g id="node5" class="node"><title>7173</title>
<ellipse fill="none" stroke="black" cx="425" cy="-306" rx="30.0272" ry="18"/>
<text text-anchor="middle" x="425" y="-300.4" font-family="Times,serif" font-size="14.00">7173</text>
</g>
<!-- 6354 -->
<g id="node6" class="node"><title>6354</title>
<ellipse fill="none" stroke="black" cx="425" cy="-234" rx="30.0272" ry="18"/>
<text text-anchor="middle" x="425" y="-228.4" font-family="Times,serif" font-size="14.00">6354</text>
</g>
<!-- 7173&#45;&gt;6354 -->
<g id="edge3" class="edge"><title>7173&#45;&gt;6354</title>
<path fill="none" stroke="black" d="M425,-287.697C425,-279.983 425,-270.712 425,-262.112"/>
<polygon fill="black" stroke="black" points="428.5,-262.104 425,-252.104 421.5,-262.104 428.5,-262.104"/>
</g>
<!-- 3087 -->
<g id="node25" class="node"><title>3087</title>
<ellipse fill="none" stroke="black" cx="307" cy="-162" rx="30.0272" ry="18"/>
<text text-anchor="middle" x="307" y="-156.4" font-family="Times,serif" font-size="14.00">3087</text>
</g>
<!-- 6354&#45;&gt;3087 -->
<g id="edge17" class="edge"><title>6354&#45;&gt;3087</title>
<path fill="none" stroke="black" d="M404.446,-220.807C385.611,-209.633 357.516,-192.967 336.326,-180.397"/>
<polygon fill="black" stroke="black" points="338.101,-177.38 327.714,-175.288 334.529,-183.4 338.101,-177.38"/>
</g>
<!-- 4086 -->
<g id="node7" class="node"><title>4086</title>
<ellipse fill="none" stroke="black" cx="786" cy="-450" rx="30.0272" ry="18"/>
<text text-anchor="middle" x="786" y="-444.4" font-family="Times,serif" font-size="14.00">4086</text>
</g>
<!-- 4086&#45;&gt;8172 -->
<g id="edge4" class="edge"><title>4086&#45;&gt;8172</title>
<path fill="none" stroke="black" d="M801.333,-434.496C811.682,-424.707 825.522,-411.614 837.161,-400.605"/>
<polygon fill="black" stroke="black" points="839.573,-403.141 844.432,-393.726 834.762,-398.056 839.573,-403.141"/>
</g>
<!-- 3996 -->
<g id="node30" class="node"><title>3996</title>
<ellipse fill="none" stroke="black" cx="820" cy="-234" rx="30.0272" ry="18"/>
<text text-anchor="middle" x="820" y="-228.4" font-family="Times,serif" font-size="14.00">3996</text>
</g>
<!-- 7443&#45;&gt;3996 -->
<g id="edge30" class="edge"><title>7443&#45;&gt;3996</title>
<path fill="none" stroke="black" d="M820,-287.697C820,-279.983 820,-270.712 820,-262.112"/>
<polygon fill="black" stroke="black" points="823.5,-262.104 820,-252.104 816.5,-262.104 823.5,-262.104"/>
</g>
<!-- 8622 -->
<g id="node9" class="node"><title>8622</title>
<ellipse fill="none" stroke="black" cx="504" cy="-306" rx="30.0272" ry="18"/>
<text text-anchor="middle" x="504" y="-300.4" font-family="Times,serif" font-size="14.00">8622</text>
</g>
<!-- 8622&#45;&gt;6354 -->
<g id="edge6" class="edge"><title>8622&#45;&gt;6354</title>
<path fill="none" stroke="black" d="M487.631,-290.496C476.435,-280.575 461.41,-267.262 448.884,-256.163"/>
<polygon fill="black" stroke="black" points="450.883,-253.258 441.078,-249.246 446.241,-258.497 450.883,-253.258"/>
</g>
<!-- 5355 -->
<g id="node10" class="node"><title>5355</title>
<ellipse fill="none" stroke="black" cx="583" cy="-306" rx="30.0272" ry="18"/>
<text text-anchor="middle" x="583" y="-300.4" font-family="Times,serif" font-size="14.00">5355</text>
</g>
<!-- 1998 -->
<g id="node11" class="node"><title>1998</title>
<ellipse fill="none" stroke="black" cx="662" cy="-234" rx="30.0272" ry="18"/>
<text text-anchor="middle" x="662" y="-228.4" font-family="Times,serif" font-size="14.00">1998</text>
</g>
<!-- 5355&#45;&gt;1998 -->
<g id="edge7" class="edge"><title>5355&#45;&gt;1998</title>
<path fill="none" stroke="black" d="M599.369,-290.496C610.565,-280.575 625.59,-267.262 638.116,-256.163"/>
<polygon fill="black" stroke="black" points="640.759,-258.497 645.922,-249.246 636.117,-253.258 640.759,-258.497"/>
</g>
<!-- 8082 -->
<g id="node45" class="node"><title>8082</title>
<ellipse fill="none" stroke="black" cx="662" cy="-162" rx="30.0272" ry="18"/>
<text text-anchor="middle" x="662" y="-156.4" font-family="Times,serif" font-size="14.00">8082</text>
</g>
<!-- 1998&#45;&gt;8082 -->
<g id="edge43" class="edge"><title>1998&#45;&gt;8082</title>
<path fill="none" stroke="black" d="M662,-215.697C662,-207.983 662,-198.712 662,-190.112"/>
<polygon fill="black" stroke="black" points="665.5,-190.104 662,-180.104 658.5,-190.104 665.5,-190.104"/>
</g>
<!-- 2088 -->
<g id="node12" class="node"><title>2088</title>
<ellipse fill="none" stroke="black" cx="583" cy="-162" rx="30.0272" ry="18"/>
<text text-anchor="middle" x="583" y="-156.4" font-family="Times,serif" font-size="14.00">2088</text>
</g>
<!-- 8532 -->
<g id="node13" class="node"><title>8532</title>
<ellipse fill="none" stroke="black" cx="622" cy="-90" rx="30.0272" ry="18"/>
<text text-anchor="middle" x="622" y="-84.4" font-family="Times,serif" font-size="14.00">8532</text>
</g>
<!-- 2088&#45;&gt;8532 -->
<g id="edge8" class="edge"><title>2088&#45;&gt;8532</title>
<path fill="none" stroke="black" d="M592.045,-144.765C596.703,-136.404 602.491,-126.016 607.734,-116.606"/>
<polygon fill="black" stroke="black" points="610.923,-118.073 612.733,-107.633 604.808,-114.666 610.923,-118.073"/>
</g>
<!-- 8532&#45;&gt;6174 -->
<g id="edge20" class="edge"><title>8532&#45;&gt;6174</title>
<path fill="none" stroke="black" d="M622,-71.6966C622,-63.9827 622,-54.7125 622,-46.1124"/>
<polygon fill="black" stroke="black" points="625.5,-46.1043 622,-36.1043 618.5,-46.1044 625.5,-46.1043"/>
</g>
<!-- 4266 -->
<g id="node14" class="node"><title>4266</title>
<ellipse fill="none" stroke="black" cx="899" cy="-162" rx="30.0272" ry="18"/>
<text text-anchor="middle" x="899" y="-156.4" font-family="Times,serif" font-size="14.00">4266</text>
</g>
<!-- 4176 -->
<g id="node15" class="node"><title>4176</title>
<ellipse fill="none" stroke="black" cx="899" cy="-90" rx="30.0272" ry="18"/>
<text text-anchor="middle" x="899" y="-84.4" font-family="Times,serif" font-size="14.00">4176</text>
</g>
<!-- 4266&#45;&gt;4176 -->
<g id="edge9" class="edge"><title>4266&#45;&gt;4176</title>
<path fill="none" stroke="black" d="M899,-143.697C899,-135.983 899,-126.712 899,-118.112"/>
<polygon fill="black" stroke="black" points="902.5,-118.104 899,-108.104 895.5,-118.104 902.5,-118.104"/>
</g>
<!-- 4176&#45;&gt;6174 -->
<g id="edge25" class="edge"><title>4176&#45;&gt;6174</title>
<path fill="none" stroke="black" d="M871.682,-82.0966C821.827,-69.4978 716.03,-42.762 659.483,-28.4723"/>
<polygon fill="black" stroke="black" points="660.075,-25.012 649.523,-25.9552 658.36,-31.7987 660.075,-25.012"/>
</g>
<!-- 5445 -->
<g id="node16" class="node"><title>5445</title>
<ellipse fill="none" stroke="black" cx="188" cy="-306" rx="30.0272" ry="18"/>
<text text-anchor="middle" x="188" y="-300.4" font-family="Times,serif" font-size="14.00">5445</text>
</g>
<!-- 1089 -->
<g id="node17" class="node"><title>1089</title>
<ellipse fill="none" stroke="black" cx="188" cy="-234" rx="30.0272" ry="18"/>
<text text-anchor="middle" x="188" y="-228.4" font-family="Times,serif" font-size="14.00">1089</text>
</g>
<!-- 5445&#45;&gt;1089 -->
<g id="edge10" class="edge"><title>5445&#45;&gt;1089</title>
<path fill="none" stroke="black" d="M188,-287.697C188,-279.983 188,-270.712 188,-262.112"/>
<polygon fill="black" stroke="black" points="191.5,-262.104 188,-252.104 184.5,-262.104 191.5,-262.104"/>
</g>
<!-- 9621 -->
<g id="node24" class="node"><title>9621</title>
<ellipse fill="none" stroke="black" cx="188" cy="-162" rx="30.0272" ry="18"/>
<text text-anchor="middle" x="188" y="-156.4" font-family="Times,serif" font-size="14.00">9621</text>
</g>
<!-- 1089&#45;&gt;9621 -->
<g id="edge39" class="edge"><title>1089&#45;&gt;9621</title>
<path fill="none" stroke="black" d="M188,-215.697C188,-207.983 188,-198.712 188,-190.112"/>
<polygon fill="black" stroke="black" points="191.5,-190.104 188,-180.104 184.5,-190.104 191.5,-190.104"/>
</g>
<!-- 8442 -->
<g id="node18" class="node"><title>8442</title>
<ellipse fill="none" stroke="black" cx="539" cy="-450" rx="30.0272" ry="18"/>
<text text-anchor="middle" x="539" y="-444.4" font-family="Times,serif" font-size="14.00">8442</text>
</g>
<!-- 5994 -->
<g id="node19" class="node"><title>5994</title>
<ellipse fill="none" stroke="black" cx="611" cy="-378" rx="30.0272" ry="18"/>
<text text-anchor="middle" x="611" y="-372.4" font-family="Times,serif" font-size="14.00">5994</text>
</g>
<!-- 8442&#45;&gt;5994 -->
<g id="edge11" class="edge"><title>8442&#45;&gt;5994</title>
<path fill="none" stroke="black" d="M554.269,-434.155C564.197,-424.503 577.315,-411.749 588.436,-400.937"/>
<polygon fill="black" stroke="black" points="591.022,-403.304 595.753,-393.824 586.143,-398.285 591.022,-403.304"/>
</g>
<!-- 5994&#45;&gt;5355 -->
<g id="edge33" class="edge"><title>5994&#45;&gt;5355</title>
<path fill="none" stroke="black" d="M604.364,-360.411C601.134,-352.335 597.172,-342.431 593.542,-333.355"/>
<polygon fill="black" stroke="black" points="596.746,-331.941 589.782,-323.956 590.247,-334.541 596.746,-331.941"/>
</g>
<!-- 6084 -->
<g id="node20" class="node"><title>6084</title>
<ellipse fill="none" stroke="black" cx="865" cy="-450" rx="30.0272" ry="18"/>
<text text-anchor="middle" x="865" y="-444.4" font-family="Times,serif" font-size="14.00">6084</text>
</g>
<!-- 6084&#45;&gt;8172 -->
<g id="edge12" class="edge"><title>6084&#45;&gt;8172</title>
<path fill="none" stroke="black" d="M863.764,-431.697C863.213,-423.983 862.551,-414.712 861.937,-406.112"/>
<polygon fill="black" stroke="black" points="865.425,-405.83 861.222,-396.104 858.443,-406.328 865.425,-405.83"/>
</g>
<!-- 6174&#45;&gt;6174 -->
<g id="edge38" class="edge"><title>6174&#45;&gt;6174</title>
<path fill="none" stroke="black" d="M643.72,-30.5475C657.186,-33.5731 670,-29.3906 670,-18 670,-9.54602 662.941,-5.06258 653.797,-4.54969"/>
<polygon fill="black" stroke="black" points="653.368,-1.07397 643.72,-5.45251 653.993,-8.04604 653.368,-1.07397"/>
</g>
<!-- 6264 -->
<g id="node22" class="node"><title>6264</title>
<ellipse fill="none" stroke="black" cx="820" cy="-162" rx="30.0272" ry="18"/>
<text text-anchor="middle" x="820" y="-156.4" font-family="Times,serif" font-size="14.00">6264</text>
</g>
<!-- 6264&#45;&gt;4176 -->
<g id="edge14" class="edge"><title>6264&#45;&gt;4176</title>
<path fill="none" stroke="black" d="M836.369,-146.496C847.565,-136.575 862.59,-123.262 875.116,-112.163"/>
<polygon fill="black" stroke="black" points="877.759,-114.497 882.922,-105.246 873.117,-109.258 877.759,-114.497"/>
</g>
<!-- 5175 -->
<g id="node23" class="node"><title>5175</title>
<ellipse fill="none" stroke="black" cx="618" cy="-450" rx="30.0272" ry="18"/>
<text text-anchor="middle" x="618" y="-444.4" font-family="Times,serif" font-size="14.00">5175</text>
</g>
<!-- 5175&#45;&gt;5994 -->
<g id="edge15" class="edge"><title>5175&#45;&gt;5994</title>
<path fill="none" stroke="black" d="M616.27,-431.697C615.498,-423.983 614.571,-414.712 613.711,-406.112"/>
<polygon fill="black" stroke="black" points="617.188,-405.706 612.71,-396.104 610.223,-406.403 617.188,-405.706"/>
</g>
<!-- 9621&#45;&gt;8352 -->
<g id="edge16" class="edge"><title>9621&#45;&gt;8352</title>
<path fill="none" stroke="black" d="M208.728,-148.807C227.723,-137.633 256.056,-120.967 277.425,-108.397"/>
<polygon fill="black" stroke="black" points="279.265,-111.375 286.11,-103.288 275.716,-105.342 279.265,-111.375"/>
</g>
<!-- 3087&#45;&gt;8352 -->
<g id="edge23" class="edge"><title>3087&#45;&gt;8352</title>
<path fill="none" stroke="black" d="M307,-143.697C307,-135.983 307,-126.712 307,-118.112"/>
<polygon fill="black" stroke="black" points="310.5,-118.104 307,-108.104 303.5,-118.104 310.5,-118.104"/>
</g>
<!-- 7263 -->
<g id="node26" class="node"><title>7263</title>
<ellipse fill="none" stroke="black" cx="1097" cy="-378" rx="30.0272" ry="18"/>
<text text-anchor="middle" x="1097" y="-372.4" font-family="Times,serif" font-size="14.00">7263</text>
</g>
<!-- 5265 -->
<g id="node27" class="node"><title>5265</title>
<ellipse fill="none" stroke="black" cx="978" cy="-306" rx="30.0272" ry="18"/>
<text text-anchor="middle" x="978" y="-300.4" font-family="Times,serif" font-size="14.00">5265</text>
</g>
<!-- 7263&#45;&gt;5265 -->
<g id="edge18" class="edge"><title>7263&#45;&gt;5265</title>
<path fill="none" stroke="black" d="M1076.27,-364.807C1057.28,-353.633 1028.94,-336.967 1007.57,-324.397"/>
<polygon fill="black" stroke="black" points="1009.28,-321.342 998.89,-319.288 1005.73,-327.375 1009.28,-321.342"/>
</g>
<!-- 5265&#45;&gt;3996 -->
<g id="edge41" class="edge"><title>5265&#45;&gt;3996</title>
<path fill="none" stroke="black" d="M954.346,-294.52C927.391,-282.578 883.16,-262.982 852.864,-249.56"/>
<polygon fill="black" stroke="black" points="854.118,-246.288 843.558,-245.437 851.283,-252.688 854.118,-246.288"/>
</g>
<!-- 8712 -->
<g id="node28" class="node"><title>8712</title>
<ellipse fill="none" stroke="black" cx="702" cy="-378" rx="30.0272" ry="18"/>
<text text-anchor="middle" x="702" y="-372.4" font-family="Times,serif" font-size="14.00">8712</text>
</g>
<!-- 8712&#45;&gt;7443 -->
<g id="edge19" class="edge"><title>8712&#45;&gt;7443</title>
<path fill="none" stroke="black" d="M722.554,-364.807C741.389,-353.633 769.484,-336.967 790.674,-324.397"/>
<polygon fill="black" stroke="black" points="792.471,-327.4 799.286,-319.288 788.899,-321.38 792.471,-327.4"/>
</g>
<!-- 8262 -->
<g id="node29" class="node"><title>8262</title>
<ellipse fill="none" stroke="black" cx="267" cy="-306" rx="30.0272" ry="18"/>
<text text-anchor="middle" x="267" y="-300.4" font-family="Times,serif" font-size="14.00">8262</text>
</g>
<!-- 8262&#45;&gt;6354 -->
<g id="edge21" class="edge"><title>8262&#45;&gt;6354</title>
<path fill="none" stroke="black" d="M290.654,-294.52C317.609,-282.578 361.84,-262.982 392.136,-249.56"/>
<polygon fill="black" stroke="black" points="393.717,-252.688 401.442,-245.437 390.882,-246.288 393.717,-252.688"/>
</g>
<!-- 3996&#45;&gt;6264 -->
<g id="edge22" class="edge"><title>3996&#45;&gt;6264</title>
<path fill="none" stroke="black" d="M820,-215.697C820,-207.983 820,-198.712 820,-190.112"/>
<polygon fill="black" stroke="black" points="823.5,-190.104 820,-180.104 816.5,-190.104 823.5,-190.104"/>
</g>
<!-- 0999 -->
<g id="node31" class="node"><title>0999</title>
<ellipse fill="none" stroke="black" cx="741" cy="-306" rx="30.0272" ry="18"/>
<text text-anchor="middle" x="741" y="-300.4" font-family="Times,serif" font-size="14.00">0999</text>
</g>
<!-- 8991 -->
<g id="node32" class="node"><title>8991</title>
<ellipse fill="none" stroke="black" cx="741" cy="-234" rx="30.0272" ry="18"/>
<text text-anchor="middle" x="741" y="-228.4" font-family="Times,serif" font-size="14.00">8991</text>
</g>
<!-- 0999&#45;&gt;8991 -->
<g id="edge24" class="edge"><title>0999&#45;&gt;8991</title>
<path fill="none" stroke="black" d="M741,-287.697C741,-279.983 741,-270.712 741,-262.112"/>
<polygon fill="black" stroke="black" points="744.5,-262.104 741,-252.104 737.5,-262.104 744.5,-262.104"/>
</g>
<!-- 8991&#45;&gt;8082 -->
<g id="edge44" class="edge"><title>8991&#45;&gt;8082</title>
<path fill="none" stroke="black" d="M724.631,-218.496C713.435,-208.575 698.41,-195.262 685.884,-184.163"/>
<polygon fill="black" stroke="black" points="687.883,-181.258 678.078,-177.246 683.241,-186.497 687.883,-181.258"/>
</g>
<!-- 7533 -->
<g id="node33" class="node"><title>7533</title>
<ellipse fill="none" stroke="black" cx="978" cy="-162" rx="30.0272" ry="18"/>
<text text-anchor="middle" x="978" y="-156.4" font-family="Times,serif" font-size="14.00">7533</text>
</g>
<!-- 7533&#45;&gt;4176 -->
<g id="edge26" class="edge"><title>7533&#45;&gt;4176</title>
<path fill="none" stroke="black" d="M961.631,-146.496C950.435,-136.575 935.41,-123.262 922.884,-112.163"/>
<polygon fill="black" stroke="black" points="924.883,-109.258 915.078,-105.246 920.241,-114.497 924.883,-109.258"/>
</g>
<!-- 9531 -->
<g id="node34" class="node"><title>9531</title>
<ellipse fill="none" stroke="black" cx="944" cy="-450" rx="30.0272" ry="18"/>
<text text-anchor="middle" x="944" y="-444.4" font-family="Times,serif" font-size="14.00">9531</text>
</g>
<!-- 9531&#45;&gt;8172 -->
<g id="edge27" class="edge"><title>9531&#45;&gt;8172</title>
<path fill="none" stroke="black" d="M927.001,-434.834C914.933,-424.777 898.533,-411.111 884.98,-399.817"/>
<polygon fill="black" stroke="black" points="886.896,-396.858 876.973,-393.144 882.415,-402.235 886.896,-396.858"/>
</g>
<!-- 0000 -->
<g id="node35" class="node"><title>0000</title>
<ellipse fill="none" stroke="black" cx="1023" cy="-450" rx="30.0272" ry="18"/>
<text text-anchor="middle" x="1023" y="-444.4" font-family="Times,serif" font-size="14.00">0000</text>
</g>
<!-- 0000&#45;&gt;0000 -->
<g id="edge28" class="edge"><title>0000&#45;&gt;0000</title>
<path fill="none" stroke="black" d="M1044.72,-462.547C1058.19,-465.573 1071,-461.391 1071,-450 1071,-441.546 1063.94,-437.063 1054.8,-436.55"/>
<polygon fill="black" stroke="black" points="1054.37,-433.074 1044.72,-437.453 1054.99,-440.046 1054.37,-433.074"/>
</g>
<!-- 2178 -->
<g id="node36" class="node"><title>2178</title>
<ellipse fill="none" stroke="black" cx="781" cy="-378" rx="30.0272" ry="18"/>
<text text-anchor="middle" x="781" y="-372.4" font-family="Times,serif" font-size="14.00">2178</text>
</g>
<!-- 2178&#45;&gt;7443 -->
<g id="edge29" class="edge"><title>2178&#45;&gt;7443</title>
<path fill="none" stroke="black" d="M790.045,-360.765C794.703,-352.404 800.491,-342.016 805.734,-332.606"/>
<polygon fill="black" stroke="black" points="808.923,-334.073 810.733,-323.633 802.808,-330.666 808.923,-334.073"/>
</g>
<!-- 9081 -->
<g id="node37" class="node"><title>9081</title>
<ellipse fill="none" stroke="black" cx="30" cy="-234" rx="30.0272" ry="18"/>
<text text-anchor="middle" x="30" y="-228.4" font-family="Times,serif" font-size="14.00">9081</text>
</g>
<!-- 9081&#45;&gt;9621 -->
<g id="edge31" class="edge"><title>9081&#45;&gt;9621</title>
<path fill="none" stroke="black" d="M53.6542,-222.52C80.6093,-210.578 124.84,-190.982 155.136,-177.56"/>
<polygon fill="black" stroke="black" points="156.717,-180.688 164.442,-173.437 153.882,-174.288 156.717,-180.688"/>
</g>
<!-- 6993 -->
<g id="node38" class="node"><title>6993</title>
<ellipse fill="none" stroke="black" cx="899" cy="-234" rx="30.0272" ry="18"/>
<text text-anchor="middle" x="899" y="-228.4" font-family="Times,serif" font-size="14.00">6993</text>
</g>
<!-- 6993&#45;&gt;6264 -->
<g id="edge32" class="edge"><title>6993&#45;&gt;6264</title>
<path fill="none" stroke="black" d="M882.631,-218.496C871.435,-208.575 856.41,-195.262 843.884,-184.163"/>
<polygon fill="black" stroke="black" points="845.883,-181.258 836.078,-177.246 841.241,-186.497 845.883,-181.258"/>
</g>
<!-- 6444 -->
<g id="node39" class="node"><title>6444</title>
<ellipse fill="none" stroke="black" cx="662" cy="-306" rx="30.0272" ry="18"/>
<text text-anchor="middle" x="662" y="-300.4" font-family="Times,serif" font-size="14.00">6444</text>
</g>
<!-- 6444&#45;&gt;1998 -->
<g id="edge34" class="edge"><title>6444&#45;&gt;1998</title>
<path fill="none" stroke="black" d="M662,-287.697C662,-279.983 662,-270.712 662,-262.112"/>
<polygon fill="black" stroke="black" points="665.5,-262.104 662,-252.104 658.5,-262.104 665.5,-262.104"/>
</g>
<!-- 9441 -->
<g id="node40" class="node"><title>9441</title>
<ellipse fill="none" stroke="black" cx="315" cy="-450" rx="30.0272" ry="18"/>
<text text-anchor="middle" x="315" y="-444.4" font-family="Times,serif" font-size="14.00">9441</text>
</g>
<!-- 7992 -->
<g id="node41" class="node"><title>7992</title>
<ellipse fill="none" stroke="black" cx="354" cy="-378" rx="30.0272" ry="18"/>
<text text-anchor="middle" x="354" y="-372.4" font-family="Times,serif" font-size="14.00">7992</text>
</g>
<!-- 9441&#45;&gt;7992 -->
<g id="edge35" class="edge"><title>9441&#45;&gt;7992</title>
<path fill="none" stroke="black" d="M324.045,-432.765C328.703,-424.404 334.491,-414.016 339.734,-404.606"/>
<polygon fill="black" stroke="black" points="342.923,-406.073 344.733,-395.633 336.808,-402.666 342.923,-406.073"/>
</g>
<!-- 7992&#45;&gt;7173 -->
<g id="edge50" class="edge"><title>7992&#45;&gt;7173</title>
<path fill="none" stroke="black" d="M369.057,-362.155C378.847,-352.503 391.783,-339.749 402.75,-328.937"/>
<polygon fill="black" stroke="black" points="405.301,-331.337 409.964,-321.824 400.386,-326.352 405.301,-331.337"/>
</g>
<!-- 3267 -->
<g id="node42" class="node"><title>3267</title>
<ellipse fill="none" stroke="black" cx="939" cy="-378" rx="30.0272" ry="18"/>
<text text-anchor="middle" x="939" y="-372.4" font-family="Times,serif" font-size="14.00">3267</text>
</g>
<!-- 3267&#45;&gt;5265 -->
<g id="edge36" class="edge"><title>3267&#45;&gt;5265</title>
<path fill="none" stroke="black" d="M948.045,-360.765C952.703,-352.404 958.491,-342.016 963.734,-332.606"/>
<polygon fill="black" stroke="black" points="966.923,-334.073 968.733,-323.633 960.808,-330.666 966.923,-334.073"/>
</g>
<!-- 4356 -->
<g id="node43" class="node"><title>4356</title>
<ellipse fill="none" stroke="black" cx="267" cy="-234" rx="30.0272" ry="18"/>
<text text-anchor="middle" x="267" y="-228.4" font-family="Times,serif" font-size="14.00">4356</text>
</g>
<!-- 4356&#45;&gt;3087 -->
<g id="edge37" class="edge"><title>4356&#45;&gt;3087</title>
<path fill="none" stroke="black" d="M276.277,-216.765C281.174,-208.195 287.289,-197.494 292.771,-187.9"/>
<polygon fill="black" stroke="black" points="295.85,-189.566 297.773,-179.147 289.773,-186.093 295.85,-189.566"/>
</g>
<!-- 3177 -->
<g id="node44" class="node"><title>3177</title>
<ellipse fill="none" stroke="black" cx="346" cy="-306" rx="30.0272" ry="18"/>
<text text-anchor="middle" x="346" y="-300.4" font-family="Times,serif" font-size="14.00">3177</text>
</g>
<!-- 3177&#45;&gt;6354 -->
<g id="edge40" class="edge"><title>3177&#45;&gt;6354</title>
<path fill="none" stroke="black" d="M362.369,-290.496C373.565,-280.575 388.59,-267.262 401.116,-256.163"/>
<polygon fill="black" stroke="black" points="403.759,-258.497 408.922,-249.246 399.117,-253.258 403.759,-258.497"/>
</g>
<!-- 8082&#45;&gt;8532 -->
<g id="edge42" class="edge"><title>8082&#45;&gt;8532</title>
<path fill="none" stroke="black" d="M652.723,-144.765C647.826,-136.195 641.711,-125.494 636.229,-115.9"/>
<polygon fill="black" stroke="black" points="639.227,-114.093 631.227,-107.147 633.15,-117.566 639.227,-114.093"/>
</g>
<!-- 9171 -->
<g id="node46" class="node"><title>9171</title>
<ellipse fill="none" stroke="black" cx="741" cy="-162" rx="30.0272" ry="18"/>
<text text-anchor="middle" x="741" y="-156.4" font-family="Times,serif" font-size="14.00">9171</text>
</g>
<!-- 9171&#45;&gt;8532 -->
<g id="edge45" class="edge"><title>9171&#45;&gt;8532</title>
<path fill="none" stroke="black" d="M720.272,-148.807C701.277,-137.633 672.944,-120.967 651.575,-108.397"/>
<polygon fill="black" stroke="black" points="653.284,-105.342 642.89,-103.288 649.735,-111.375 653.284,-105.342"/>
</g>
<!-- 7353 -->
<g id="node47" class="node"><title>7353</title>
<ellipse fill="none" stroke="black" cx="1057" cy="-162" rx="30.0272" ry="18"/>
<text text-anchor="middle" x="1057" y="-156.4" font-family="Times,serif" font-size="14.00">7353</text>
</g>
<!-- 7353&#45;&gt;4176 -->
<g id="edge46" class="edge"><title>7353&#45;&gt;4176</title>
<path fill="none" stroke="black" d="M1033.35,-150.52C1006.39,-138.578 962.16,-118.982 931.864,-105.56"/>
<polygon fill="black" stroke="black" points="933.118,-102.288 922.558,-101.437 930.283,-108.688 933.118,-102.288"/>
</g>
<!-- 5085 -->
<g id="node48" class="node"><title>5085</title>
<ellipse fill="none" stroke="black" cx="394" cy="-450" rx="30.0272" ry="18"/>
<text text-anchor="middle" x="394" y="-444.4" font-family="Times,serif" font-size="14.00">5085</text>
</g>
<!-- 5085&#45;&gt;7992 -->
<g id="edge47" class="edge"><title>5085&#45;&gt;7992</title>
<path fill="none" stroke="black" d="M384.723,-432.765C379.826,-424.195 373.711,-413.494 368.229,-403.9"/>
<polygon fill="black" stroke="black" points="371.227,-402.093 363.227,-395.147 365.15,-405.566 371.227,-402.093"/>
</g>
<!-- 2997 -->
<g id="node49" class="node"><title>2997</title>
<ellipse fill="none" stroke="black" cx="433" cy="-378" rx="30.0272" ry="18"/>
<text text-anchor="middle" x="433" y="-372.4" font-family="Times,serif" font-size="14.00">2997</text>
</g>
<!-- 2997&#45;&gt;7173 -->
<g id="edge48" class="edge"><title>2997&#45;&gt;7173</title>
<path fill="none" stroke="black" d="M431.022,-359.697C430.141,-351.983 429.081,-342.712 428.099,-334.112"/>
<polygon fill="black" stroke="black" points="431.568,-333.642 426.955,-324.104 424.613,-334.437 431.568,-333.642"/>
</g>
<!-- 7623 -->
<g id="node50" class="node"><title>7623</title>
<ellipse fill="none" stroke="black" cx="1018" cy="-378" rx="30.0272" ry="18"/>
<text text-anchor="middle" x="1018" y="-372.4" font-family="Times,serif" font-size="14.00">7623</text>
</g>
<!-- 7623&#45;&gt;5265 -->
<g id="edge49" class="edge"><title>7623&#45;&gt;5265</title>
<path fill="none" stroke="black" d="M1008.72,-360.765C1003.83,-352.195 997.711,-341.494 992.229,-331.9"/>
<polygon fill="black" stroke="black" points="995.227,-330.093 987.227,-323.147 989.15,-333.566 995.227,-330.093"/>
</g>
<!-- 4995 -->
<g id="node51" class="node"><title>4995</title>
<ellipse fill="none" stroke="black" cx="532" cy="-378" rx="30.0272" ry="18"/>
<text text-anchor="middle" x="532" y="-372.4" font-family="Times,serif" font-size="14.00">4995</text>
</g>
<!-- 4995&#45;&gt;5355 -->
<g id="edge51" class="edge"><title>4995&#45;&gt;5355</title>
<path fill="none" stroke="black" d="M543.573,-361.116C550.028,-352.255 558.201,-341.037 565.43,-331.115"/>
<polygon fill="black" stroke="black" points="568.413,-332.965 571.473,-322.821 562.756,-328.843 568.413,-332.965"/>
</g>
<!-- 9711 -->
<g id="node52" class="node"><title>9711</title>
<ellipse fill="none" stroke="black" cx="505" cy="-162" rx="29.4952" ry="18"/>
<text text-anchor="middle" x="505" y="-156.4" font-family="Times,serif" font-size="14.00">9711</text>
</g>
<!-- 9711&#45;&gt;8532 -->
<g id="edge52" class="edge"><title>9711&#45;&gt;8532</title>
<path fill="none" stroke="black" d="M525.38,-148.807C543.972,-137.683 571.663,-121.116 592.641,-108.565"/>
<polygon fill="black" stroke="black" points="594.677,-111.426 601.461,-103.288 591.083,-105.419 594.677,-111.426"/>
</g>
<!-- 9801 -->
<g id="node53" class="node"><title>9801</title>
<ellipse fill="none" stroke="black" cx="109" cy="-234" rx="30.0272" ry="18"/>
<text text-anchor="middle" x="109" y="-228.4" font-family="Times,serif" font-size="14.00">9801</text>
</g>
<!-- 9801&#45;&gt;9621 -->
<g id="edge53" class="edge"><title>9801&#45;&gt;9621</title>
<path fill="none" stroke="black" d="M125.369,-218.496C136.565,-208.575 151.59,-195.262 164.116,-184.163"/>
<polygon fill="black" stroke="black" points="166.759,-186.497 171.922,-177.246 162.117,-181.258 166.759,-186.497"/>
</g>
<!-- 6534 -->
<g id="node54" class="node"><title>6534</title>
<ellipse fill="none" stroke="black" cx="346" cy="-234" rx="30.0272" ry="18"/>
<text text-anchor="middle" x="346" y="-228.4" font-family="Times,serif" font-size="14.00">6534</text>
</g>
<!-- 6534&#45;&gt;3087 -->
<g id="edge54" class="edge"><title>6534&#45;&gt;3087</title>
<path fill="none" stroke="black" d="M336.955,-216.765C332.297,-208.404 326.509,-198.016 321.266,-188.606"/>
<polygon fill="black" stroke="black" points="324.192,-186.666 316.267,-179.633 318.077,-190.073 324.192,-186.666"/>
</g>
<!-- 7083 -->
<g id="node55" class="node"><title>7083</title>
<ellipse fill="none" stroke="black" cx="386" cy="-162" rx="30.0272" ry="18"/>
<text text-anchor="middle" x="386" y="-156.4" font-family="Times,serif" font-size="14.00">7083</text>
</g>
<!-- 7083&#45;&gt;8352 -->
<g id="edge55" class="edge"><title>7083&#45;&gt;8352</title>
<path fill="none" stroke="black" d="M369.631,-146.496C358.435,-136.575 343.41,-123.262 330.884,-112.163"/>
<polygon fill="black" stroke="black" points="332.883,-109.258 323.078,-105.246 328.241,-114.497 332.883,-109.258"/>
</g>
</g>
</svg>
